<?xml version="1.0" encoding="utf-8"?>
<!-- Generator: Adobe Illustrator 16.2.0, SVG Export Plug-In . SVG Version: 6.00 Build 0)  -->
<!DOCTYPE svg PUBLIC "-//W3C//DTD SVG 1.1//EN" "http://www.w3.org/Graphics/SVG/1.1/DTD/svg11.dtd">
<svg version="1.1" id="Layer_1" xmlns="http://www.w3.org/2000/svg" xmlns:xlink="http://www.w3.org/1999/xlink" x="0px" y="0px"
	 width="1024px" height="1024px" viewBox="0 0 1024 1024" enable-background="new 0 0 1024 1024" xml:space="preserve">
<rect fill="#FFFFFF" fill-opacity="0" width="1024" height="1024"/>
<polygon fill="#FF0000" points="1011,477 1011,507 963,507 963,497 961,497 961,507 913,507 913,497 911,497 911,507 863,507 
	863,497 861,497 861,507 813,507 813,497 811,497 811,507 763,507 763,477 761,477 761,511 713,511 713,497 711,497 711,511 
	663,511 663,497 661,497 661,511 613,511 613,497 611,497 611,511 563,511 563,497 561,497 561,511 513,511 513,497 513,463 
	527,463 527,461 513,461 513,413 527,413 527,411 513,411 513,363 527,363 527,361 513,361 513,313 527,313 527,311 513,311 
	513,263 547,263 547,261 517,261 517,213 527,213 527,211 517,211 517,163 527,163 527,161 517,161 517,113 527,113 527,111 
	517,111 517,63 527,63 527,61 517,61 517,13 547,13 547,11 477,11 477,13 507,13 507,61 497,61 497,63 507,63 507,111 497,111 
	497,113 507,113 507,161 497,161 497,163 507,163 507,211 497,211 497,213 507,213 507,261 477,261 477,263 511,263 511,311 
	497,311 497,313 511,313 511,361 497,361 497,363 511,363 511,411 497,411 497,413 511,413 511,461 497,461 497,463 511,463 
	511,497 511,511 463,511 463,497 461,497 461,511 413,511 413,497 411,497 411,511 363,511 363,497 361,497 361,511 313,511 
	313,497 311,497 311,511 263,511 263,477 261,477 261,507 213,507 213,497 211,497 211,507 163,507 163,497 161,497 161,507 
	113,507 113,497 111,497 111,507 63,507 63,497 61,497 61,507 13,507 13,477 11,477 11,547 13,547 13,517 61,517 61,527 63,527 
	63,517 111,517 111,527 113,527 113,517 161,517 161,527 163,527 163,517 211,517 211,527 213,527 213,517 261,517 261,547 263,547 
	263,513 311,513 311,527 313,527 313,513 361,513 361,527 363,527 363,513 411,513 411,527 413,527 413,513 461,513 461,527 
	463,527 463,513 511,513 511,527 511,561 497,561 497,563 511,563 511,611 497,611 497,613 511,613 511,661 497,661 497,663 
	511,663 511,711 497,711 497,713 511,713 511,761 477,761 477,763 507,763 507,811 497,811 497,813 507,813 507,861 497,861 
	497,863 507,863 507,911 497,911 497,913 507,913 507,961 497,961 497,963 507,963 507,1011 477,1011 477,1013 547,1013 547,1011 
	517,1011 517,963 527,963 527,961 517,961 517,913 527,913 527,911 517,911 517,863 527,863 527,861 517,861 517,813 527,813 
	527,811 517,811 517,763 547,763 547,761 513,761 513,713 527,713 527,711 513,711 513,663 527,663 527,661 513,661 513,613 
	527,613 527,611 513,611 513,563 527,563 527,561 513,561 513,527 513,513 561,513 561,527 563,527 563,513 611,513 611,527 
	613,527 613,513 661,513 661,527 663,527 663,513 711,513 711,527 713,527 713,513 761,513 761,547 763,547 763,517 811,517 
	811,527 813,527 813,517 861,517 861,527 863,527 863,517 911,517 911,527 913,527 913,517 961,517 961,527 963,527 963,517 
	1011,517 1011,547 1013,547 1013,477 "/>
</svg>
